<svg xmlns="http://www.w3.org/2000/svg" viewBox="0 0 24 24" id="calendar-medium" data-supported-dps="24x24" fill="#c37e25"><path d="M3,3v15c0,1.66,1.34,3,3,3h12c1.66,0,3-1.34,3-3V3H3Zm13,1.75c.69,0,1.25,.56,1.25,1.25s-.56,1.25-1.25,1.25-1.25-.56-1.25-1.25,.56-1.25,1.25-1.25Zm-8,0c.69,0,1.25,.56,1.25,1.25s-.56,1.25-1.25,1.25-1.25-.56-1.25-1.25,.56-1.25,1.25-1.25Zm11,13.25c0,.55-.45,1-1,1H6c-.55,0-1-.45-1-1V9h14v9ZM7,11h2v2h-2v-2Zm0,4h2v2h-2v-2Zm4-4h2v2h-2v-2Zm0,4h2v2h-2v-2Zm4-4h2v2h-2v-2Zm0,4h2v2h-2v-2Z"></path></svg>